<svg xmlns="http://www.w3.org/2000/svg" viewBox="0 0 1920 1080">
  <defs>
    <linearGradient id="night" x1="0" y1="0" x2="0" y2="1">
      <stop offset="0%" stop-color="#0a1020"/>
      <stop offset="60%" stop-color="#152040"/>
      <stop offset="100%" stop-color="#080c14"/>
    </linearGradient>
  </defs>
  <rect width="1920" height="1080" fill="url(#night)"/>
  <g fill="#f0e8c0" opacity="0.7">
    <circle cx="200" cy="120" r="2"/><circle cx="450" cy="80" r="1.5"/><circle cx="800" cy="150" r="2"/>
    <circle cx="1200" cy="60" r="1.5"/><circle cx="1500" cy="130" r="2"/><circle cx="1750" cy="90" r="1.5"/>
  </g>
  <rect x="0" y="700" width="1920" height="380" fill="#0c1018"/>
  <g fill="#1a2030" opacity="0.9">
    <rect x="0" y="550" width="200" height="250"/><rect x="180" y="480" width="160" height="320"/>
    <rect x="400" y="520" width="220" height="280"/><rect x="700" y="450" width="180" height="350"/>
    <rect x="950" y="500" width="200" height="300"/><rect x="1200" y="420" width="240" height="380"/>
    <rect x="1500" y="530" width="180" height="270"/><rect x="1720" y="490" width="200" height="310"/>
  </g>
  <text x="960" y="90" text-anchor="middle" fill="#c8d8f8" font-size="30">'”)­ Ę ╬o</text>
</svg>
